<svg width="500" height="300" xmlns="http://www.w3.org/2000/svg">
 <title/>
 <g id="Layer_1">
  <title>Layer 1</title>
  <path stroke-width="4" d="m297.74419,43.55814c1,0 2,0 3,0c1,0 3,0 4,0c2,0 3,0 4,0c1,0 1,0 1,0c1,0 2.15225,-0.76537 4,0c1.30655,0.5412 2,1 4,1c2,0 3,0 4,0c1,0 2,0 3,0c1,0 2,0 3,0c1,0 3,0 4,0c1,0 2,0 4,0c1,0 2,0 3,0c1,0 1.69342,-0.4588 3,-1c0.92389,-0.38268 1.69342,-0.4588 3,-1c0.92389,-0.38268 1.29291,-0.29289 2,-1c0.70709,-0.70711 2,0 3,-1c1,-1 2.07611,-0.61732 3,-1c1.30658,-0.5412 1.82373,-1.48626 4,-2c0.97327,-0.22975 3.02673,0.22975 4,0c2.17627,-0.51374 3,-1 6,-1c1,0 3,0 6,0c2,0 3,0 4,0c2,0 3,0 5,0c1,0 2,0 3,0c1,0 2,0 3,0c2,0 3,0 4,0c1,0 2,1 3,1c1,0 1.69342,1.4588 3,2c1.84778,0.76537 2.29291,0.29289 3,1c0.70709,0.70711 2.07611,1.61732 3,2c1.30658,0.5412 1.85272,2.1731 3,3c1.81396,1.30745 2,2 3,3c1,1 0.58582,1.58578 2,3c0.70709,0.70711 1.29291,0.29289 2,1c1.41418,1.41422 1.1731,1.85273 2,3c1.30743,1.814 1.14935,2.47427 2,3c1.9021,1.17557 1.29291,3.29289 2,4c0.70709,0.70711 0.29291,1.29289 1,2c0.70709,0.70711 1.4588,0.69344 2,2c0.38269,0.92388 -0.41418,2.58578 1,4c0.70709,0.70711 1.4588,0.69344 2,2c0.38269,0.92388 1,2 1,3c0,2 1,2 1,3c0,1 0.4588,1.69344 1,3c0.38269,0.92387 1,2 1,4c0,1 1.4588,2.69344 2,4c0.38269,0.92387 0,2 0,3c0,1 0,2 0,3c0,1 1,2 1,3c0,1 0,2 0,3c0,1 -0.22974,3.02675 0,4c0.51373,2.17625 1,3 1,4c0,1 0,2 0,3c0,1 0,2 0,3c0,1 0,3 0,4c0,1 0,3 0,4c0,2 0,3 0,5c0,1 0,2 0,3c0,1 0,2 0,3c0,1 -0.4588,1.69344 -1,3c-0.38269,0.92387 0,2 0,3c0,1 -0.1731,1.85274 -1,3c-1.30743,1.814 -0.61731,3.07613 -1,4c-0.5412,1.30656 -1,2 -1,3c0,1 -0.29291,2.29289 -1,3c-0.70709,0.70711 -1.4588,0.69344 -2,2c-0.38269,0.92387 -1,2 -1,3c0,1 -0.4588,1.69344 -1,3c-0.38269,0.92387 -1,2 -1,3c0,1 -0.4588,1.69344 -1,3c-0.38269,0.92387 0,2 0,3c0,1 -1,2 -1,3c0,1 0,2 0,3c0,1 0,2 0,3c0,1 0,2 0,3c0,1 0,2 0,3c0,2 0,3 0,4c0,2 0,3 0,4c0,1 -0.38269,2.07613 0,3c0.5412,1.30656 1,2 1,3c0,1 -0.38269,2.07611 0,3c0.5412,1.30655 1.29291,1.29291 2,2c0.70709,0.70709 0.29291,1.29291 1,2c0.70709,0.70709 -0.70709,2.29291 0,3c0.70709,0.70709 1.48627,0.82376 2,3c0.22974,0.97324 0.4588,1.69345 1,3c0.38269,0.92389 -0.70709,2.29291 0,3c0.70709,0.70709 1.4588,0.69345 2,2c0.38269,0.92389 0,2 0,3c0,1 -0.38269,2.07611 0,3c0.5412,1.30655 1,2 1,4c0,1 0,3 0,4c0,1 0,2 0,3c0,1 0,2 0,3c0,1 0.38269,2.07611 0,3c-0.5412,1.30655 -1,2 -2,3c-1,1 -1.29291,1.29291 -2,2c-0.70709,0.70709 -0.29291,1.29291 -1,2c-0.70709,0.70709 -1.07611,0.61731 -2,1c-1.30658,0.5412 -1.07611,1.61731 -2,2c-1.30658,0.5412 -1,2 -2,2c-1,0 -1.69342,1.4588 -3,2c-0.92389,0.38269 -1.69342,1.4588 -3,2c-0.92389,0.38269 -1.29291,0.29291 -2,1c-1.41418,1.41422 -2.29291,0.29291 -3,1c-0.70709,0.70709 -2,0 -3,0c-1,0 -1,1 -3,1c-1,0 -1,1 -2,1c-1,0 -2,0 -3,0c-1,0 -2,0 -3,0c-2,0 -4,0 -5,0c-1,0 -3,0 -5,0c-1,0 -3,1 -5,1c-2,0 -4,1 -5,1c-2,0 -4,0 -5,0c-1,0 -2,1 -3,1c-1,0 -2,0 -4,0c-1,0 -2,0 -3,0c-1,0 -3,0 -4,0c-2,0 -3,0 -4,0c-1,0 -2,0 -3,0c-2,0 -3,0 -4,0c-1,0 -3,0 -4,0c-2,0 -3,0 -6,0c-1,0 -3,0 -4,0c-2,0 -4,0 -5,0c-1,0 -3,0 -4,0c-1,0 -2.29291,0.70709 -3,0c-0.70709,-0.70709 -2.01291,-0.83981 -3,-1c-3.12143,-0.50653 -5,-1 -7,-1c-1,0 -3.69345,-0.4588 -5,-1c-0.92389,-0.38269 -1.69345,-0.4588 -3,-1c-0.92389,-0.38269 -2,0 -3,0c-1,0 -2.07611,0.38269 -3,0c-1.30655,-0.5412 -2,-1 -4,-1c-1,0 -1.69345,-0.4588 -3,-1c-1.84775,-0.76538 -3,0 -4,0c-2,0 -3,0 -4,0c-1,0 -2.02676,0.22977 -3,0c-2.17624,-0.51373 -2.69345,-1.4588 -4,-2c-1.84775,-0.76538 -3,0 -4,0c-2,0 -3,0 -5,0c-1,0 -2,0 -4,0c-1,0 -3,0 -4,0c-1,0 -2,0 -5,0c-1,0 -2,0 -3,0c-1,0 -2,0 -3,0c-1,0 -2,0 -3,0c-1,0 -2,0 -3,0c-1,0 -2,0 -3,0c-2,0 -3,0 -5,0c-1,0 -2,0 -3,0c-1,0 -2,0 -3,0c-1,0 -3,0 -4,0c-1,0 -3,0 -4,0c-1,0 -3.15225,-0.76538 -5,0c-1.30655,0.5412 -2,1 -3,1c-1,0 -2.07611,-0.38269 -3,0c-1.30655,0.5412 -2,1 -3,1c-1,0 -3,0 -4,0c-1,0 -2,0 -3,0c-1,0 -2,0 -3,0c-2,0 -4,0 -5,0c-2,0 -4,0 -6,0c-1,0 -1.82376,0.48627 -4,1c-1.9465,0.4595 -3,0 -4,0c-2,0 -3,0 -5,0c-1,0 -2,0 -4,0c-1,0 -2,0 -4,0c-1,0 -2,0 -3,0c-2,0 -3,0 -4,0c-2,0 -4,0 -6,0c-1,0 -3,-1 -4,-1c-2,0 -3.58578,1.41422 -5,0c-0.70709,-0.70709 -1,-1 -3,-1c-2,0 -2.69345,-0.4588 -4,-1c-0.92389,-0.38269 -2.07611,0.38269 -3,0c-1.30655,-0.5412 -1.69345,-1.4588 -3,-2c-0.92389,-0.38269 -1.69345,-0.4588 -3,-1c-0.92389,-0.38269 -2.29291,0.70709 -3,0c-0.70709,-0.70709 -0.07611,-1.61731 -1,-2c-1.30655,-0.5412 -3.29291,-1.29291 -4,-2c-0.70709,-0.70709 -1.07611,-1.61731 -2,-2c-1.30655,-0.5412 -2,-1 -3,-2c-1,-1 -2.07611,-1.61731 -3,-2c-1.30655,-0.5412 -1.29291,-2.29291 -2,-3c-1.41422,-1.41422 -2.58578,0.41422 -4,-1c-1.41422,-1.41422 -0.47427,-2.14935 -1,-3c-1.17557,-1.9021 -2.69345,-2.4588 -4,-3c-0.92389,-0.38269 -1.29291,-0.29291 -2,-1c-0.70709,-0.70709 -0.69345,-1.4588 -2,-2c-0.92389,-0.38269 -1.61731,-1.07611 -2,-2c-1.0824,-2.61313 -3.186,-2.69254 -5,-4c-1.14728,-0.8269 -1.47427,-3.14935 -2,-4c-1.17557,-1.9021 -2.82443,-1.0979 -4,-3c-0.52573,-0.85065 -0.61731,-2.07611 -1,-3c-0.5412,-1.30655 -2.4588,-2.69345 -3,-4c-0.38269,-0.92389 -0.33749,-2.31 -2,-5c-0.7435,-1.203 -0.09789,-2.82443 -2,-4c-0.85065,-0.52573 -1.4588,-1.69345 -2,-3c-0.76537,-1.84776 -1.48625,-1.82375 -2,-4c-0.22975,-0.97325 -1.48625,-1.82375 -2,-4c-0.4595,-1.9465 0,-3 -1,-5c-1,-2 -2,-4 -2,-5c0,-2 -1.4588,-3.69344 -2,-5c-0.76537,-1.84776 0,-4 -1,-6c-1,-2 -1.48625,-2.82375 -2,-5c-0.4595,-1.9465 0.22975,-4.02675 0,-5c-0.51375,-2.17625 -1.48625,-3.82375 -2,-6c-0.22975,-0.97325 0,-4 0,-6c0,-1 -0.4588,-1.69344 -1,-3c-0.76537,-1.84776 -0.4588,-3.69344 -1,-5c-0.76537,-1.84776 0,-5 0,-7c0,-2 0,-3 0,-5c0,-2 0,-4 0,-5c0,-2 0,-4 0,-5c0,-2 0,-3 0,-5c0,-1 0,-3 0,-4c0,-1 0,-3 0,-4c0,-1 0,-2 0,-3c0,-2 0,-3 0,-4c0,-2 0,-3 0,-5c0,-1 0,-3 0,-4c0,-1 0,-2 0,-4c0,-1 0,-2 0,-3c0,-1 0,-2 0,-3c0,-1 0.4588,-1.69344 1,-3c0.76537,-1.84776 1,-2 1,-3c0,-1 1,-1 1,-3c0,-1 1,-2 1,-3c0,-1 0.61731,-2.07612 1,-3c0.5412,-1.30656 1.4588,-1.69344 2,-3c0.38269,-0.92388 0.61731,-2.07612 1,-3c0.5412,-1.30656 1.4588,-1.69344 2,-3c0.38269,-0.92388 0.29289,-1.29289 1,-2c1.41422,-1.41422 1.29289,-2.29289 2,-3c0.70711,-0.70711 0.4588,-1.69344 1,-3c0.38269,-0.92388 0.29289,-2.29289 1,-3c0.70711,-0.70711 1.4588,-0.69344 2,-2c0.38269,-0.92388 0.61731,-1.07612 1,-2c0.5412,-1.30656 1.29289,-1.29289 2,-2c0.70711,-0.70711 0.29289,-1.29289 1,-2c0.70711,-0.70711 1,-1 2,-2c1,-1 1.29291,-1.29289 2,-2c0.70709,-0.70711 1.29291,-1.29289 2,-2c0.70709,-0.70711 1.29291,-0.29289 2,-1c0.70709,-0.70711 2,-1 3,-1c1,0 1.69345,-1.4588 3,-2c0.92389,-0.38268 2,0 3,0c1,0 2,0 3,0c1,0 2,0 3,0c1,0 2,0 3,0c1,0 2,0 3,0c1,0 2,0 3,0c1,0 2,0 3,0c1,0 1,1 2,1c1,0 2,0 3,0c1,0 2.29291,-0.70711 3,0c0.70709,0.70711 1,1 2,1c1,0 1.29291,0.29289 2,1c0.70709,0.70711 2.29291,-0.70711 3,0c0.70709,0.70711 0.69345,1.4588 2,2c0.92389,0.38268 2.07611,-0.38268 3,0c1.30655,0.5412 2,1 3,1c1,0 2,1 3,1c1,0 1.07611,0.61732 2,1c1.30655,0.5412 2.07611,0.61732 3,1c1.30655,0.5412 2,1 3,1c1,0 2.29291,0.29289 3,1c0.70709,0.70711 2.02676,0.77025 3,1c2.17624,0.51374 4.29291,0.29289 5,1c0.70709,0.70711 2.02676,0.77025 3,1c2.17624,0.51374 3,1 4,1c1,0 2,0 3,0c1,0 2.0535,0.5405 4,1c2.17624,0.51374 3,1 5,1c1,0 2,0 4,0c1,0 3,0 4,0c2,0 3,0 4,0c2,0 3,0 4,0c1,0 2,0 3,0c1,0 3,0 4,0c1,0 2.02676,0.22975 3,0c2.17624,-0.51374 3.02676,-0.77025 4,-1c2.17624,-0.51374 2.69345,-1.4588 4,-2c0.92389,-0.38268 2.07611,0.38268 3,0c1.30655,-0.5412 2.29291,-0.29289 3,-1c0.70709,-0.70711 1,-1 2,-1c1,0 2.07611,-0.61732 3,-1c1.30655,-0.5412 2.07611,-0.61732 3,-1c1.30655,-0.5412 1.69345,-1.4588 3,-2c0.92389,-0.38268 2,-1 3,-1c1,0 1.82376,-1.48626 4,-2c0.97324,-0.22975 1.69345,-0.4588 3,-1c0.92389,-0.38268 2,-1 3,-1c1,0 1.29291,-0.29289 2,-1c0.70709,-0.70711 2,0 3,0c1,0 2,0 3,0c1,0 2,0 3,0c1,0 2,0 3,0c1,0 2,0 4,0c1,0 2,1 3,1c1,0 1.69345,0.4588 3,1c0.92389,0.38268 2,0 3,0c1,0 2,1 3,1c1,0 2.07611,-0.38268 3,0c1.30655,0.5412 2.29291,0.29289 3,1c0.70709,0.70711 1.69345,1.4588 3,2c0.92389,0.38268 2.29291,-0.70711 3,0c0.70709,0.70711 1,1 2,1c1,0 2.29291,0.29289 3,1c0.70709,0.70711 1,1 2,1c1,0 1.29291,0.29289 2,1c0.70709,0.70711 2.29291,-0.70711 3,0c0.70709,0.70711 1,1 2,1c1,0 2.07611,-0.38268 3,0c1.30655,0.5412 2,1 3,1l1,0l1,0" id="svg_5" stroke="#000" fill="white"/>
 </g>
</svg>